<svg width="50" height="50" viewBox="0 0 50 50" fill="none" xmlns="http://www.w3.org/2000/svg">
<path d="M25.4994 17.9161C25.2234 17.9161 24.9994 17.6968 24.9994 17.4266C24.9994 15.5341 26.5674 14 28.4994 14C28.7764 14 28.9994 14.2193 28.9994 14.4895C28.9994 16.382 27.4324 17.9161 25.4994 17.9161Z" fill="#6F6F70"/>
<path d="M25.4994 17.9161C25.2234 17.9161 24.9994 17.6968 24.9994 17.4266C24.9994 15.5341 26.5674 14 28.4994 14C28.7764 14 28.9994 14.2193 28.9994 14.4895C28.9994 16.382 27.4324 17.9161 25.4994 17.9161Z" fill="#6F6F70"/>
<path d="M32.7998 28.2238C32.9928 28.3657 33.0558 28.6232 32.9468 28.8347C31.1868 32.2828 29.7828 34 28.4998 34C27.9028 34 27.3159 33.8111 26.7439 33.4429C25.9109 32.9055 24.8359 32.8829 23.9799 33.3842C23.2869 33.7905 22.6269 34 21.9999 34C20.113 34 17 28.3109 17 25.1888C17 21.8562 18.785 19.3147 21.4999 19.3147C22.7769 19.3147 23.8799 19.4987 24.8059 19.8727C25.1989 20.0313 25.6429 20.0196 26.0259 19.8394C26.7779 19.486 27.7688 19.3147 28.9998 19.3147C30.5018 19.3147 31.8108 20.047 32.8998 21.4685C33.0648 21.6849 33.0208 21.9913 32.7998 22.1538C31.5848 23.0457 30.9998 24.0482 30.9998 25.1888C30.9998 26.3294 31.5848 27.3319 32.7998 28.2238Z" fill="#6F6F70"/>
<path d="M32.7998 28.2238C32.9928 28.3657 33.0558 28.6232 32.9468 28.8347C31.1868 32.2828 29.7828 34 28.4998 34C27.9028 34 27.3159 33.8111 26.7439 33.4429C25.9109 32.9055 24.8359 32.8829 23.9799 33.3842C23.2869 33.7905 22.6269 34 21.9999 34C20.113 34 17 28.3109 17 25.1888C17 21.8562 18.785 19.3147 21.4999 19.3147C22.7769 19.3147 23.8799 19.4987 24.8059 19.8727C25.1989 20.0313 25.6429 20.0196 26.0259 19.8394C26.7779 19.486 27.7688 19.3147 28.9998 19.3147C30.5018 19.3147 31.8108 20.047 32.8998 21.4685C33.0648 21.6849 33.0208 21.9913 32.7998 22.1538C31.5848 23.0457 30.9998 24.0482 30.9998 25.1888C30.9998 26.3294 31.5848 27.3319 32.7998 28.2238Z" fill="#6F6F70"/>
</svg>
