<svg width="50" height="50" viewBox="0 0 50 50" fill="none" xmlns="http://www.w3.org/2000/svg">
<path d="M32.36 17H17.64C17.286 17 17 17.286 17 17.64V32.36C17 32.714 17.286 33 17.64 33H32.36C32.714 33 33 32.714 33 32.36V17.64C33 17.286 32.714 17 32.36 17ZM30.512 21.67H29.234C28.232 21.67 28.038 22.146 28.038 22.846V24.388H30.43L30.118 26.802H28.038V33H25.544V26.804H23.458V24.388H25.544V22.608C25.544 20.542 26.806 19.416 28.65 19.416C29.534 19.416 30.292 19.482 30.514 19.512V21.67H30.512Z" fill="#6F6F70"/>
</svg>
