<svg width="50" height="50" viewBox="0 0 50 50" fill="none" xmlns="http://www.w3.org/2000/svg">
<path d="M32.9757 18.5648C32.9616 18.3508 32.8206 18.1662 32.618 18.096C32.4154 18.0259 32.1905 18.0839 32.0471 18.2433C31.6784 18.6531 31.2125 18.9308 30.7397 19.0574C30.082 18.4434 29.1983 18.0667 28.2273 18.0667C26.1432 18.0667 24.4551 19.7586 24.4551 21.8439V22.313C21.2645 22.0664 19.5583 19.6427 19.0979 18.413C19.0234 18.2143 18.8383 18.0785 18.6263 18.0674C18.4144 18.0563 18.216 18.1719 18.1212 18.3618C17.0047 20.5983 16.8327 22.7674 17.6442 24.6145C18.355 26.2326 19.7846 27.5215 21.8107 28.3754C20.8899 29.028 19.34 29.8 17.5334 29.8C17.2984 29.8 17.0911 29.9537 17.023 30.1786C16.9548 30.4034 17.0418 30.6464 17.2372 30.7768C18.9696 31.9335 20.7852 31.9334 22.4739 31.9333L22.5256 31.9333C27.7103 31.9333 31.9119 27.724 31.9119 22.5333V22.0232C32.2996 21.6292 32.6014 21.2258 32.7863 20.7044C32.9927 20.1226 33.0343 19.448 32.9757 18.5648Z" fill="#6F6F70"/>
</svg>
